<mxfile host="app.diagrams.net" modified="2023-08-21T08:47:49.219Z" agent="Mozilla/5.0 (Windows NT 10.0; Win64; x64; rv:109.0) Gecko/20100101 Firefox/116.0" etag="RuRrQxsGodS0tjqD7G9F" version="21.6.6" type="github">
  <diagram name="Page-1" id="HtI5pIquW2iRP8JEWeIP">
    <mxGraphModel dx="1434" dy="774" grid="1" gridSize="10" guides="1" tooltips="1" connect="1" arrows="1" fold="1" page="1" pageScale="1" pageWidth="1100" pageHeight="850" math="0" shadow="0">
      <root>
        <mxCell id="0" />
        <mxCell id="1" parent="0" />
        <mxCell id="7Qs3C3Ygpp_gJc_5n-tw-1" style="rounded=0;orthogonalLoop=1;jettySize=auto;html=1;exitX=0.5;exitY=1;exitDx=0;exitDy=0;entryX=0.5;entryY=0;entryDx=0;entryDy=0;endArrow=none;endFill=0;" edge="1" parent="1" source="7Qs3C3Ygpp_gJc_5n-tw-2" target="7Qs3C3Ygpp_gJc_5n-tw-5">
          <mxGeometry relative="1" as="geometry" />
        </mxCell>
        <mxCell id="7Qs3C3Ygpp_gJc_5n-tw-2" value="Laporan Tiket" style="whiteSpace=wrap;html=1;aspect=fixed;" vertex="1" parent="1">
          <mxGeometry x="540" y="140" width="80" height="80" as="geometry" />
        </mxCell>
        <mxCell id="7Qs3C3Ygpp_gJc_5n-tw-3" style="rounded=0;orthogonalLoop=1;jettySize=auto;html=1;exitX=0.5;exitY=0;exitDx=0;exitDy=0;entryX=0.5;entryY=1;entryDx=0;entryDy=0;endArrow=none;endFill=0;" edge="1" parent="1" source="7Qs3C3Ygpp_gJc_5n-tw-4" target="7Qs3C3Ygpp_gJc_5n-tw-2">
          <mxGeometry relative="1" as="geometry" />
        </mxCell>
        <mxCell id="7Qs3C3Ygpp_gJc_5n-tw-4" value="Baca Data Tiket" style="whiteSpace=wrap;html=1;aspect=fixed;" vertex="1" parent="1">
          <mxGeometry x="460" y="300" width="80" height="80" as="geometry" />
        </mxCell>
        <mxCell id="7Qs3C3Ygpp_gJc_5n-tw-5" value="Cetak Laporan Tiket" style="whiteSpace=wrap;html=1;aspect=fixed;" vertex="1" parent="1">
          <mxGeometry x="620" y="300" width="80" height="80" as="geometry" />
        </mxCell>
        <mxCell id="7Qs3C3Ygpp_gJc_5n-tw-6" value="" style="endArrow=classic;html=1;rounded=0;startArrow=oval;startFill=0;" edge="1" parent="1">
          <mxGeometry relative="1" as="geometry">
            <mxPoint x="490" y="280" as="sourcePoint" />
            <mxPoint x="530" y="240" as="targetPoint" />
          </mxGeometry>
        </mxCell>
        <mxCell id="7Qs3C3Ygpp_gJc_5n-tw-7" value="input" style="edgeLabel;resizable=0;html=1;align=center;verticalAlign=middle;" connectable="0" vertex="1" parent="7Qs3C3Ygpp_gJc_5n-tw-6">
          <mxGeometry relative="1" as="geometry" />
        </mxCell>
        <mxCell id="7Qs3C3Ygpp_gJc_5n-tw-8" value="" style="endArrow=classic;html=1;rounded=0;startArrow=oval;startFill=0;" edge="1" parent="1">
          <mxGeometry relative="1" as="geometry">
            <mxPoint x="620" y="240" as="sourcePoint" />
            <mxPoint x="670" y="280" as="targetPoint" />
          </mxGeometry>
        </mxCell>
        <mxCell id="7Qs3C3Ygpp_gJc_5n-tw-9" value="output" style="edgeLabel;resizable=0;html=1;align=center;verticalAlign=middle;" connectable="0" vertex="1" parent="7Qs3C3Ygpp_gJc_5n-tw-8">
          <mxGeometry relative="1" as="geometry" />
        </mxCell>
      </root>
    </mxGraphModel>
  </diagram>
</mxfile>
